<svg width="24" height="24" viewBox="0 0 24 24" fill="none" xmlns="http://www.w3.org/2000/svg">
<path d="M6.32533 12.7824H8.95612V23.6129C8.95612 23.8267 9.12938 24 9.34321 24H13.8038C14.0176 24 14.1909 23.8267 14.1909 23.6129V12.8334H17.2152C17.4119 12.8334 17.5773 12.6859 17.5998 12.4905L18.0591 8.50328C18.0717 8.39357 18.0369 8.28372 17.9635 8.20142C17.8901 8.11905 17.7849 8.0719 17.6746 8.0719H14.1911V5.57249C14.1911 4.81904 14.5967 4.43698 15.3969 4.43698C15.511 4.43698 17.6746 4.43698 17.6746 4.43698C17.8885 4.43698 18.0617 4.26364 18.0617 4.04988V0.389961C18.0617 0.176129 17.8885 0.00286452 17.6746 0.00286452H14.5357C14.5135 0.00178065 14.4643 0 14.3919 0C13.8472 0 11.9541 0.106916 10.4587 1.48266C8.80174 3.0072 9.03206 4.83259 9.08711 5.14908V8.07182H6.32533C6.1115 8.07182 5.93823 8.24508 5.93823 8.45892V12.3952C5.93823 12.6091 6.1115 12.7824 6.32533 12.7824Z" fill="white"/>
</svg>
