<svg width="45" height="45" viewBox="0 0 45 45" fill="none" xmlns="http://www.w3.org/2000/svg">
<g clip-path="url(#clip0_212_179)">
<path d="M39.8438 43.125H5.15625C2.31188 43.125 0 40.8131 0 37.9688V7.03125C0 4.18688 2.31188 1.875 5.15625 1.875H39.8438C42.6881 1.875 45 4.18688 45 7.03125V37.9688C45 40.8131 42.6881 43.125 39.8438 43.125ZM5.15625 4.6875C3.86437 4.6875 2.8125 5.73938 2.8125 7.03125V37.9688C2.8125 39.2606 3.86437 40.3125 5.15625 40.3125H39.8438C41.1356 40.3125 42.1875 39.2606 42.1875 37.9688V7.03125C42.1875 5.73938 41.1356 4.6875 39.8438 4.6875H5.15625Z" fill="white"/>
<path d="M43.5938 11.25H1.40625C0.63 11.25 0 10.62 0 9.84375C0 9.0675 0.63 8.4375 1.40625 8.4375H43.5938C44.37 8.4375 45 9.0675 45 9.84375C45 10.62 44.37 11.25 43.5938 11.25Z" fill="white"/>
<path d="M30.4687 24.375H26.7187C25.9425 24.375 25.3125 23.745 25.3125 22.9687C25.3125 22.1925 25.9425 21.5625 26.7187 21.5625H29.0625V19.2187C29.0625 18.4425 29.6925 17.8125 30.4687 17.8125C31.245 17.8125 31.875 18.4425 31.875 19.2187V22.9687C31.875 23.745 31.245 24.375 30.4687 24.375Z" fill="white"/>
<path d="M14.5312 34.6875C13.755 34.6875 13.125 34.0575 13.125 33.2812V29.5312C13.125 28.755 13.755 28.125 14.5312 28.125H18.2812C19.0575 28.125 19.6875 28.755 19.6875 29.5312C19.6875 30.3075 19.0575 30.9375 18.2812 30.9375H15.9375V33.2812C15.9375 34.0575 15.3075 34.6875 14.5312 34.6875Z" fill="white"/>
<path d="M14.8875 25.3125C14.7507 25.3125 14.6138 25.2919 14.4769 25.2525C13.7344 25.0256 13.3144 24.24 13.5413 23.4956C14.7488 19.5356 18.3488 16.875 22.5 16.875C25.9688 16.875 29.1319 18.7781 30.7557 21.84C31.1194 22.5262 30.8588 23.3775 30.1725 23.7431C29.4882 24.1013 28.635 23.8462 28.2713 23.1581C27.135 21.0169 24.9244 19.6875 22.5 19.6875C19.5957 19.6875 17.0757 21.5475 16.2319 24.3169C16.0482 24.9225 15.4913 25.3125 14.8875 25.3125Z" fill="white"/>
<path d="M22.4999 35.6248C19.0312 35.6248 15.8681 33.7217 14.2443 30.6598C13.8806 29.9735 14.1412 29.1223 14.8274 28.7566C15.5156 28.4004 16.3649 28.6554 16.7287 29.3416C17.8649 31.4829 20.0756 32.8123 22.4999 32.8123C25.3893 32.8123 27.9093 30.9504 28.7699 28.1754C29.0006 27.4348 29.7881 27.0185 30.5287 27.251C31.2712 27.4798 31.6856 28.2691 31.4549 29.0098C30.2287 32.966 26.6287 35.6248 22.4999 35.6248Z" fill="white"/>
</g>
<defs>
<clipPath id="clip0_212_179">
<rect width="45" height="45" fill="white"/>
</clipPath>
</defs>
</svg>
