<svg width="45" height="41" viewBox="0 0 45 41" fill="none" xmlns="http://www.w3.org/2000/svg">
<g clip-path="url(#clip0_212_207)">
<path d="M24.3448 7.21332H24.2569V4.49195C24.2569 3.60781 23.4703 2.89111 22.5 2.89111C21.5296 2.89111 20.743 3.60781 20.743 4.49195V7.21332H20.6551C18.2331 7.21332 16.2627 9.00859 16.2627 11.2153V17.0582C16.2627 19.2649 18.2331 21.0602 20.6551 21.0602H20.743V29.5444C20.743 30.4286 21.5296 31.1453 22.5 31.1453C23.4704 31.1453 24.2569 30.4286 24.2569 29.5444V21.0602H24.3448C26.7668 21.0602 28.7372 19.2649 28.7372 17.0582V11.2153C28.7372 9.00867 26.7667 7.21332 24.3448 7.21332ZM25.2233 17.0583C25.2233 17.4996 24.8292 17.8586 24.3448 17.8586H20.6552C20.1708 17.8586 19.7767 17.4996 19.7767 17.0583V11.2154C19.7767 10.7741 20.1708 10.415 20.6552 10.415H24.3448C24.8292 10.415 25.2233 10.7741 25.2233 11.2154V17.0583Z" fill="white"/>
<path d="M7.91784 15.2174V8.81422C7.91784 7.93008 7.13122 7.21338 6.16091 7.21338C5.1906 7.21338 4.40389 7.93008 4.40389 8.81422V15.2174C1.98189 15.2174 0.0114746 17.0127 0.0114746 19.2194V28.8242C0.0114746 31.0309 1.98189 32.8262 4.40389 32.8262V39.3992C4.40389 40.2833 5.19051 41 6.16091 41C7.13131 41 7.91784 40.2833 7.91784 39.3992V32.8262C10.3398 32.8262 12.3103 31.0309 12.3103 28.8242V19.2194C12.3103 17.0126 10.3398 15.2174 7.91784 15.2174ZM8.79639 28.8242C8.79639 29.2655 8.40229 29.6246 7.91793 29.6246H4.40389C3.91952 29.6246 3.52542 29.2655 3.52542 28.8242V19.2194C3.52542 18.7781 3.91952 18.419 4.40389 18.419H7.91784C8.4022 18.419 8.7963 18.7781 8.7963 19.2194V28.8242H8.79639Z" fill="white"/>
<path d="M43.2324 20.0197C44.2028 20.0197 44.9894 19.303 44.9894 18.419V10.4149C44.9894 8.20823 43.019 6.41296 40.597 6.41296V1.60084C40.5969 0.716698 39.8103 0 38.8399 0C37.8695 0 37.0828 0.716698 37.0828 1.60084V6.41296C34.6608 6.41296 32.6904 8.20823 32.6904 10.4149V26.4229C32.6904 28.6296 34.6608 30.4249 37.0828 30.4249V36.1878C37.0828 37.0719 37.8695 37.7886 38.8399 37.7886C39.8103 37.7886 40.5969 37.0719 40.5969 36.1878V30.4249C43.0189 30.4249 44.9893 28.6296 44.9893 26.4229C44.9893 25.5388 44.2027 24.8222 43.2323 24.8222C42.2619 24.8222 41.4754 25.5389 41.4754 26.4229C41.4754 26.8642 41.0813 27.2233 40.5969 27.2233H37.0829C36.5986 27.2233 36.2045 26.8642 36.2045 26.4229V10.4149C36.2045 9.97363 36.5986 9.61456 37.0829 9.61456H40.5969C41.0813 9.61456 41.4754 9.97363 41.4754 10.4149V18.419C41.4754 19.303 42.262 20.0197 43.2324 20.0197Z" fill="white"/>
</g>
<defs>
<clipPath id="clip0_212_207">
<rect width="45" height="41" fill="white"/>
</clipPath>
</defs>
</svg>
