<svg width="45" height="45" viewBox="0 0 45 45" fill="none" xmlns="http://www.w3.org/2000/svg">
<g clip-path="url(#clip0_212_202)">
<path d="M11.9531 23.9062C18.4956 23.9062 23.8184 18.5441 23.8184 11.9531C23.8184 5.36212 18.4956 0 11.9531 0C8.78379 0 5.78856 1.2498 3.51923 3.51923C1.24989 5.78865 0 8.78379 0 11.9531C0 15.1225 1.2498 18.1177 3.51923 20.387C5.78865 22.6564 8.78379 23.9062 11.9531 23.9062ZM21.1816 11.9531C21.1816 16.6383 17.7369 20.5262 13.2706 21.1741V18.3182C14.8051 17.7739 15.9082 16.3085 15.9082 14.5898C15.9082 12.409 14.134 10.6348 11.9531 10.6348C11.2262 10.6348 10.6348 10.0433 10.6348 9.31641C10.6348 8.58946 11.2262 7.99805 11.9531 7.99805C12.6801 7.99805 13.2715 8.58946 13.2715 9.31641H15.9082C15.9082 7.59771 14.806 6.1323 13.2715 5.58809V2.73217C17.7377 3.38001 21.1816 7.26794 21.1816 11.9531ZM10.6348 2.73041V5.58809C9.10028 6.1323 7.99805 7.59771 7.99805 9.31641C7.99805 11.4972 9.77229 13.2715 11.9531 13.2715C12.6801 13.2715 13.2715 13.8629 13.2715 14.5898C13.2715 15.3168 12.6801 15.9082 11.9531 15.9082C11.2262 15.9082 10.6348 15.3168 10.6348 14.5898H7.99805C7.99805 16.3085 9.10037 17.7739 10.6348 18.3182V21.1758C6.11982 20.5334 2.63672 16.6427 2.63672 11.9531C2.63672 7.26355 6.11982 3.3728 10.6348 2.73041V2.73041Z" fill="white"/>
<path d="M31.7285 31.8164H21.1816V37.0898H10.6348V45H45V26.543H31.7285V31.8164ZM34.3652 34.4531H42.3633V37.0898H34.3652V34.4531ZM23.8184 34.4531H31.7285V37.0898H23.8184V34.4531ZM21.1816 42.3633H13.2715V39.7266H21.1816V42.3633ZM23.8184 42.3633V39.7266H31.7285V42.3633H23.8184ZM34.3652 42.3633V39.7266H42.3633V42.3633H34.3652ZM34.3652 29.1797H42.3633V31.8164H34.3652V29.1797Z" fill="white"/>
<path d="M33.3714 18.3206C37.4436 13.2531 39.8845 8.22707 41.1419 5.17243L42.4146 7.71766L44.7729 6.53843L41.5466 0.0859375L35.094 3.31223L36.2732 5.67059L38.5398 4.53725C37.2959 7.47367 34.9779 12.1305 31.2581 16.7409C23.1874 26.7444 12.6707 31.8166 0 31.8166V34.4533C13.4531 34.4533 24.8714 28.898 33.3714 18.3206V18.3206Z" fill="white"/>
</g>
<defs>
<clipPath id="clip0_212_202">
<rect width="45" height="45" fill="white"/>
</clipPath>
</defs>
</svg>
