<svg width="45" height="45" viewBox="0 0 45 45" fill="none" xmlns="http://www.w3.org/2000/svg">
<g clip-path="url(#clip0_212_171)">
<path d="M22.5 45C16.49 45 10.8398 42.6596 6.59004 38.41C2.34044 34.1603 0 28.51 0 22.5C0 16.49 2.34044 10.8397 6.59004 6.59004C10.8398 2.34044 16.49 0 22.5 0C28.51 0 34.1602 2.34044 38.41 6.59004C42.6596 10.8397 45 16.49 45 22.5C45 28.51 42.6596 34.1603 38.41 38.41C34.1602 42.6596 28.51 45 22.5 45V45ZM22.5 2.63672C11.5473 2.63672 2.63672 11.5473 2.63672 22.5C2.63672 33.4527 11.5473 42.3633 22.5 42.3633C33.4527 42.3633 42.3633 33.4527 42.3633 22.5C42.3633 11.5473 33.4527 2.63672 22.5 2.63672Z" fill="white"/>
<path d="M22.5001 37.0898C21.5267 37.0898 20.5515 36.9924 19.6018 36.8002C18.8882 36.6557 18.4268 35.9603 18.5711 35.2466C18.7156 34.5329 19.4113 34.0717 20.1248 34.2159C21.6806 34.5308 23.3195 34.5308 24.8752 34.2159C25.5898 34.0715 26.2845 34.533 26.429 35.2466C26.5734 35.9603 26.1119 36.6558 25.3983 36.8002C24.4486 36.9924 23.4735 37.0898 22.5001 37.0898Z" fill="white"/>
<path d="M22.5 5.27344C13.0012 5.27344 5.27344 13.0012 5.27344 22.5C5.27344 27.0947 7.0672 31.4188 10.3243 34.6758C10.8391 35.1905 11.6739 35.1906 12.1888 34.6758L15.9159 30.9487C16.4307 30.4339 16.4307 29.5991 15.9159 29.0842C14.1539 27.3223 13.1836 24.984 13.1836 22.5C13.1836 17.3629 17.363 13.1836 22.5 13.1836C24.5941 13.1836 26.529 13.8783 28.0866 15.0491L24.2042 18.9315C23.6878 18.6839 23.1099 18.5449 22.5 18.5449C20.3191 18.5449 18.5449 20.3192 18.5449 22.5C18.5449 24.6809 20.3191 26.4551 22.5 26.4551C24.6809 26.4551 26.4551 24.6809 26.4551 22.5C26.4551 21.8901 26.3161 21.3122 26.0686 20.7958L29.951 16.9134C31.1217 18.471 31.8164 20.4059 31.8164 22.5C31.8164 24.984 30.8461 27.3223 29.0841 29.0842C28.5693 29.5991 28.5693 30.4338 29.0841 30.9487L32.8112 34.6758C33.0687 34.9333 33.4061 35.0619 33.7435 35.0619C34.0808 35.0619 34.4183 34.9332 34.6757 34.6758C37.9328 31.4188 39.7266 27.0947 39.7266 22.5C39.7266 13.0012 31.9988 5.27344 22.5 5.27344V5.27344ZM11.2976 31.838C9.10415 29.2181 7.91016 25.9489 7.91016 22.5C7.91016 18.9512 9.18431 15.6948 11.2984 13.1629L13.1714 15.0357C11.5302 17.0826 10.5469 19.6785 10.5469 22.5C10.5469 25.2455 11.47 27.852 13.1695 29.966L11.2976 31.838ZM22.5 10.5469C19.6784 10.5469 17.0826 11.5302 15.0357 13.1713L13.1629 11.2983C15.6948 9.18431 18.9512 7.91016 22.5 7.91016C26.0488 7.91016 29.3052 9.18431 31.8371 11.2984L29.9642 13.1714C27.9174 11.5302 25.3216 10.5469 22.5 10.5469V10.5469ZM22.5 23.8184C21.7731 23.8184 21.1816 23.2269 21.1816 22.5C21.1816 21.7731 21.7731 21.1816 22.5 21.1816C23.227 21.1816 23.8184 21.7731 23.8184 22.5C23.8184 23.2269 23.227 23.8184 22.5 23.8184ZM33.7024 31.838L31.8305 29.9661C33.53 27.852 34.4531 25.2455 34.4531 22.5C34.4531 19.6785 33.4698 17.0826 31.8287 15.0357L33.7017 13.1629C35.8157 15.6948 37.0898 18.9512 37.0898 22.5C37.0898 25.9489 35.8959 29.2181 33.7024 31.838Z" fill="white"/>
</g>
<defs>
<clipPath id="clip0_212_171">
<rect width="45" height="45" fill="white"/>
</clipPath>
</defs>
</svg>
