<svg width="24" height="24" viewBox="0 0 24 24" fill="none" xmlns="http://www.w3.org/2000/svg">
<g clip-path="url(#clip0_216_314)">
<path d="M23.4559 4.4425C23.0789 4.60972 22.6912 4.75086 22.2952 4.86544C22.7641 4.33511 23.1216 3.71111 23.3398 3.02828C23.3888 2.87522 23.3381 2.70768 23.2123 2.60758C23.0866 2.5074 22.912 2.4954 22.7737 2.57739C21.9325 3.07628 21.025 3.4348 20.0734 3.64446C19.1149 2.70784 17.813 2.1748 16.4672 2.1748C13.6263 2.1748 11.315 4.486 11.315 7.32683C11.315 7.55057 11.3292 7.77308 11.3572 7.99248C7.8319 7.68296 4.55451 5.95024 2.30393 3.18954C2.22372 3.09114 2.10016 3.03811 1.97366 3.04825C1.84708 3.05816 1.73335 3.12954 1.6694 3.23924C1.21293 4.0225 0.971617 4.91831 0.971617 5.82977C0.971617 7.07119 1.41484 8.24905 2.19779 9.16941C1.95972 9.08696 1.7287 8.98391 1.50821 8.86151C1.38984 8.79563 1.24537 8.79664 1.12777 8.86407C1.01009 8.9315 0.936314 9.05553 0.933218 9.19109C0.932676 9.21393 0.932676 9.23677 0.932676 9.25991C0.932676 11.1129 1.92999 12.7813 3.45477 13.6905C3.32377 13.6775 3.19286 13.6585 3.06279 13.6336C2.9287 13.608 2.79082 13.655 2.70039 13.7573C2.60981 13.8595 2.57985 14.0019 2.62158 14.132C3.18597 15.8941 4.63905 17.1901 6.39569 17.5853C4.93874 18.4978 3.2726 18.9758 1.52354 18.9758C1.15859 18.9758 0.79154 18.9544 0.432314 18.9119C0.253863 18.8906 0.0832303 18.996 0.0224562 19.1657C-0.038318 19.3355 0.0260949 19.5248 0.177914 19.6221C2.42486 21.0628 5.02297 21.8243 7.69123 21.8243C12.9367 21.8243 16.2181 19.3508 18.0472 17.2757C20.3279 14.6882 21.636 11.2634 21.636 7.87953C21.636 7.73816 21.6338 7.5954 21.6295 7.4531C22.5293 6.77514 23.3041 5.95465 23.9345 5.0116C24.0303 4.86838 24.0199 4.67909 23.909 4.54724C23.7982 4.41532 23.6135 4.37266 23.4559 4.4425Z" fill="white"/>
</g>
<defs>
<clipPath id="clip0_216_314">
<rect width="24" height="24" fill="white"/>
</clipPath>
</defs>
</svg>
